<!DOCTYPE svg PUBLIC "-//W3C//DTD SVG 1.1//EN" "http://www.w3.org/Graphics/SVG/1.1/DTD/svg11.dtd">
<!-- Uploaded to: SVG Repo, www.svgrepo.com, Transformed by: SVG Repo Mixer Tools -->
<svg fill="#000000" width="800px" height="800px" viewBox="0 0 512 512" version="1.1" xml:space="preserve" xmlns="http://www.w3.org/2000/svg" xmlns:xlink="http://www.w3.org/1999/xlink">
<g id="SVGRepo_bgCarrier" stroke-width="0"/>
<g id="SVGRepo_tracerCarrier" stroke-linecap="round" stroke-linejoin="round"/>
<g id="SVGRepo_iconCarrier"> <g id="A_-_77_x2C__hacker_x2C__user_x2C__gammer_x2C__programmer"> <g> <path d="M228.386,131.982h-5.262h-9.595c-2.525,0-4.659,2.099-4.659,4.582c0,2.568,2.09,4.659,4.659,4.659h14.856 c2.573,0,4.666-2.09,4.666-4.659C233.051,134.038,230.958,131.982,228.386,131.982z"/> <path d="M288.713,136.563c0-2.483-2.139-4.582-4.667-4.582h-7.464h-7.393c-2.568,0-4.658,2.056-4.658,4.582 c0,2.612,2.046,4.659,4.658,4.659h14.856C286.619,141.222,288.713,139.132,288.713,136.563z"/> <path d="M176.114,92.243c0.123,0.056,0.25,0.098,0.366,0.169c1.57,0.958,3.238,1.746,4.974,2.359 c0.025,0.008,0.05,0.017,0.074,0.025c0.505,0.176,1.017,0.335,1.532,0.481c0.102,0.029,0.204,0.06,0.307,0.087 c1.092,0.298,2.207,0.525,3.336,0.686c0.162,0.024,0.326,0.042,0.49,0.063c0.416,0.051,0.833,0.093,1.252,0.126 c0.166,0.013,0.331,0.027,0.497,0.038c0.566,0.035,1.135,0.058,1.708,0.058h87.421c6.592,0,12.612-3.874,15.337-9.869 c0.365-0.804,1.039-1.426,1.867-1.727c0.006-0.002,0.012-0.002,0.017-0.003c0.191-0.069,0.386-0.116,0.584-0.147 c0.063-0.01,0.124-0.01,0.187-0.017c0.111-0.011,0.221-0.028,0.332-0.028c0.025,0,0.051,0.008,0.077,0.008 c0.153,0.003,0.302,0.026,0.452,0.051c0.078,0.013,0.157,0.017,0.234,0.035c0.221,0.053,0.437,0.126,0.645,0.225 c0.004,0.002,0.01,0.003,0.016,0.005l0.654,0.316l26.851,12.916l0.165-15.361l-30.906-28.021c-0.4-0.363-0.705-0.82-0.886-1.33 c-0.372-1.045-0.765-1.898-1.2-2.608c-0.031-0.049-0.059-0.099-0.086-0.149c-3.41-6.265-9.989-10.157-17.17-10.157H162.722v27.929 C162.722,78.481,168.089,87.33,176.114,92.243z M195.631,49.906c0.055-1.81,1.551-3.242,3.379-3.179 c1.806,0.055,3.227,1.561,3.178,3.367c-0.032,1.539,0.14,14.922,15.612,15.425c19.036,0.538,53.977,0.004,54.328-0.001 c1.818-0.009,3.303,1.417,3.33,3.229c0.029,1.811-1.416,3.302-3.229,3.33c-0.234,0.003-15.81,0.243-31.865,0.243 c-8.104,0-16.326-0.061-22.765-0.244C199.705,71.493,195.406,57.319,195.631,49.906z M173.382,57.602 c0.06-1.81,1.56-3.247,3.385-3.17c1.808,0.059,3.225,1.569,3.171,3.375c-0.003,0.112-0.095,5.497,2.573,10.781 c3.438,6.808,9.862,10.404,19.092,10.689c25.178,0.771,71.545,0.006,72.01-0.001c0.02-0.001,0.037-0.001,0.057-0.001 c1.785,0,3.248,1.432,3.277,3.225c0.031,1.811-1.413,3.305-3.224,3.334c-0.311,0.005-20.969,0.346-42.225,0.346 c-10.726,0-21.601-0.087-30.097-0.347c-8.743-0.27-15.669-3.063-20.585-8.303C173.09,69.296,173.366,58.076,173.382,57.602z"/> <path d="M250.712,203.015c7.77,0,14.559-3.383,16.829-7.906h-33.65C236.159,199.631,242.946,203.015,250.712,203.015z"/> <path d="M269.479,203.015h27.072c17.786-22.424,27.883-54.876,29.625-78.734c0.002-0.037,0.005-0.072,0.008-0.109 c0.055-0.76,0.101-1.513,0.139-2.256c0.012-0.251,0.021-0.499,0.03-0.749c0.022-0.544,0.047-1.089,0.062-1.623 c0.021-0.808,0.033-1.609,0.033-2.397c0-5.156-0.463-7.065-1.48-11.248c-0.061-0.247-0.122-0.5-0.186-0.761l-27.008-13.011 c-0.065,0.103-0.139,0.2-0.206,0.3c-0.205,0.309-0.41,0.617-0.628,0.914c-0.061,0.082-0.127,0.159-0.188,0.24 c-0.234,0.309-0.47,0.618-0.718,0.913c-0.01,0.012-0.021,0.024-0.031,0.036c-0.304,0.361-0.616,0.713-0.94,1.054 c-0.052,0.055-0.108,0.105-0.161,0.159c-0.285,0.295-0.572,0.586-0.873,0.864c-0.148,0.138-0.307,0.266-0.459,0.4 c-0.211,0.187-0.418,0.377-0.635,0.555c-0.064,0.054-0.135,0.103-0.2,0.155c-0.312,0.25-0.626,0.497-0.948,0.731 c-0.061,0.044-0.125,0.083-0.187,0.125c-0.728,0.515-1.48,0.994-2.263,1.424c-0.338,0.185-0.684,0.356-1.029,0.524 c-0.088,0.043-0.174,0.093-0.264,0.135c-0.253,0.12-0.515,0.225-0.773,0.336c-0.186,0.08-0.371,0.167-0.56,0.243 c-0.07,0.027-0.143,0.05-0.214,0.077c-1.193,0.462-2.429,0.826-3.695,1.089c-0.303,0.062-0.607,0.115-0.914,0.167 c-1.25,0.207-2.523,0.326-3.815,0.326H190.65c-0.599,0-1.194-0.016-1.785-0.045c-0.091-0.006-0.181-0.016-0.271-0.021 c-0.501-0.03-1.002-0.065-1.499-0.116c-0.113-0.012-0.225-0.03-0.337-0.043c-0.473-0.053-0.945-0.11-1.413-0.183 c-0.12-0.019-0.238-0.044-0.358-0.064c-0.46-0.076-0.918-0.156-1.374-0.25c-0.108-0.023-0.214-0.051-0.322-0.075 c-0.469-0.102-0.935-0.209-1.396-0.33c-0.071-0.019-0.14-0.042-0.211-0.061c-0.506-0.136-1.007-0.281-1.504-0.44 c-0.007-0.001-0.015-0.004-0.023-0.007c-1.113-0.357-2.202-0.77-3.264-1.233c-1.048,4.459-1.677,9.004-1.895,13.58 c0.29,0.492,0.461,1.059,0.461,1.657v1.887c0,6.822,0.772,14.338,2.297,22.338c0.119,0.625,0.049,1.245-0.169,1.802 c4.229,20.818,13.425,44.313,27.29,61.728h27.074c-3.391-3.055-5.428-6.949-5.428-11.186c0-1.811,1.468-3.28,3.28-3.28h41.824 c1.812,0,3.28,1.469,3.28,3.28C274.908,196.066,272.869,199.96,269.479,203.015z M258.939,170.186 c-2.517,3.425-6.371,5.502-9.848,5.502c-0.794,0-1.569-0.108-2.304-0.334c-2.955-0.907-4.797-3.518-4.93-6.984l-0.712-16.094 c-0.08-1.811,1.322-3.342,3.132-3.422c1.834-0.087,3.342,1.322,3.421,3.131l0.713,16.115c0.009,0.227,0.054,0.908,0.3,0.984 c0.851,0.261,3.226-0.447,4.94-2.781c1.073-1.46,3.126-1.774,4.585-0.701C259.699,166.674,260.012,168.727,258.939,170.186z M269.189,147.782c-6.154,0-11.162-4.981-11.213-11.123c-6.397-2.511-12.444-2.523-18.368-0.038 c-0.031,6.159-5.052,11.161-11.223,11.161h-14.856c-6.186,0-11.218-5.032-11.218-11.218c0-1.634,0.364-3.182,1.004-4.582h-19.66 c-1.812,0-3.28-1.468-3.28-3.28c0-1.811,1.468-3.28,3.28-3.28h29.874h9.595h5.262c3.861,0,7.272,1.946,9.293,4.9 c7.153-2.83,14.594-2.815,22.194,0.042c2.017-2.978,5.439-4.942,9.316-4.942h7.393h7.464h33.731c1.812,0,3.279,1.469,3.279,3.28 c0,1.812-1.468,3.28-3.279,3.28h-23.51c0.639,1.399,1.004,2.948,1.004,4.582c0,6.186-5.035,11.218-11.226,11.218H269.189z"/> <path d="M273.465,357.146l0.904,6.421c8.234-2.273,11.115-4.994,11.115-6.011c0-2.805-13.916-9.38-40.9-9.38 c-26.989,0-40.906,6.575-40.906,9.38c0,1.017,2.88,3.735,11.119,6.01l0.871-6.203l0.036-0.258c0-0.001,0-0.003,0.001-0.003v-0.001 c0.002-0.017,0.008-0.031,0.011-0.048c0.021-0.136,0.055-0.264,0.092-0.392c0.014-0.048,0.018-0.097,0.034-0.143 c0-0.002,0.001-0.002,0.001-0.003c0.016-0.047,0.041-0.089,0.059-0.135c0.053-0.138,0.107-0.276,0.176-0.404 c0.014-0.023,0.032-0.044,0.047-0.068c0.083-0.145,0.173-0.284,0.276-0.412c0.021-0.026,0.048-0.047,0.069-0.072 c0.104-0.121,0.211-0.238,0.331-0.343c0.035-0.03,0.077-0.053,0.114-0.082c0.113-0.09,0.226-0.181,0.35-0.255 c0.001,0,0.001,0,0.002-0.001c0.044-0.026,0.095-0.044,0.141-0.068c0.124-0.066,0.247-0.134,0.38-0.185 c0.047-0.019,0.1-0.025,0.149-0.042c0.136-0.044,0.273-0.09,0.417-0.117l0,0c0.195-0.036,0.396-0.055,0.6-0.055h51.258 c0.204,0,0.405,0.019,0.6,0.055c0.05,0.009,0.095,0.029,0.144,0.041c0.145,0.033,0.287,0.067,0.422,0.118 c0.063,0.023,0.119,0.061,0.181,0.088c0.115,0.051,0.232,0.101,0.341,0.166c0.053,0.031,0.098,0.074,0.149,0.108 c0.108,0.073,0.218,0.144,0.317,0.229c0.053,0.047,0.096,0.103,0.146,0.152c0.087,0.086,0.176,0.168,0.253,0.263 c0.051,0.064,0.09,0.137,0.137,0.204c0.063,0.092,0.133,0.18,0.186,0.276c0.049,0.088,0.081,0.185,0.121,0.276 c0.039,0.088,0.084,0.17,0.115,0.262c0.034,0.104,0.052,0.216,0.076,0.324c0.02,0.088,0.048,0.17,0.061,0.26l0.002,0.005 c0,0,0,0,0,0.001L273.465,357.146z"/> <path d="M167.684,134.028c0.01,0.031,0.019,0.062,0.028,0.091c0.356,1.296,1.271,2.323,2.431,2.838 c-1.115-6.684-1.711-13.008-1.78-18.698c-0.146,0.029-0.291,0.045-0.438,0.085c-3.275,0.886-5.16,4.134-4.295,7.396 c0.394,1.423,1.286,2.644,2.505,3.407c1.115,0.697,1.705,1.993,1.5,3.292C167.534,133.083,167.55,133.588,167.684,134.028z"/> <path d="M334.172,134.181c0.145-0.651,0.176-1.223,0.094-1.742c-0.205-1.299,0.385-2.595,1.499-3.292 c1.218-0.761,2.073-1.947,2.411-3.338c0.885-3.342-0.965-6.59-4.195-7.462c-0.33-0.09-0.656-0.154-0.979-0.191 c-0.001,0.136-0.012,0.278-0.014,0.415c-0.018,1.204-0.055,2.427-0.119,3.684c-0.024,0.495-0.063,1-0.094,1.5 c-0.041,0.645-0.09,1.294-0.145,1.951c-0.294,3.684-0.748,7.495-1.406,11.445C332.615,136.741,333.75,135.634,334.172,134.181z"/> <path d="M213.895,370.115c-8.232-2.15-16.776-5.971-16.776-12.56c0-10.951,24.605-15.939,47.466-15.939 c22.857,0,47.458,4.988,47.458,15.939c0,6.593-8.544,10.411-16.775,12.562l4.563,32.821H381.3c6.12,0,11.101-4.982,11.101-11.106 V220.603c0-6.081-4.98-11.028-11.101-11.028h-83.18h-94.808h-95.444c-6.125,0-11.108,4.947-11.108,11.028v171.229 c0,6.124,4.983,11.106,11.108,11.106h101.466L213.895,370.115z M366.699,384.205c0-1.811,1.469-3.279,3.279-3.279 c1.812,0,3.28,1.469,3.28,3.279v9.119c0,1.811-1.469,3.279-3.28,3.279c-1.811,0-3.279-1.469-3.279-3.279V384.205z M353.49,384.205 c0-1.811,1.47-3.279,3.281-3.279c1.811,0,3.279,1.469,3.279,3.279v9.119c0,1.811-1.469,3.279-3.279,3.279 c-1.812,0-3.281-1.469-3.281-3.279V384.205z M340.199,384.205c0-1.811,1.469-3.279,3.28-3.279s3.28,1.469,3.28,3.279v9.119 c0,1.811-1.469,3.279-3.28,3.279s-3.28-1.469-3.28-3.279V384.205z M326.916,384.205c0-1.811,1.467-3.279,3.279-3.279 s3.279,1.469,3.279,3.279v9.119c0,1.811-1.467,3.279-3.279,3.279s-3.279-1.469-3.279-3.279V384.205z M125.062,393.324 c0,1.811-1.468,3.279-3.28,3.279s-3.28-1.469-3.28-3.279v-9.119c0-1.811,1.469-3.279,3.28-3.279s3.28,1.469,3.28,3.279V393.324z M138.354,393.324c0,1.811-1.469,3.279-3.28,3.279s-3.28-1.469-3.28-3.279v-9.119c0-1.811,1.468-3.279,3.28-3.279 s3.28,1.469,3.28,3.279V393.324z M151.561,393.324c0,1.811-1.468,3.279-3.28,3.279c-1.811,0-3.28-1.469-3.28-3.279v-9.119 c0-1.811,1.469-3.279,3.28-3.279c1.812,0,3.28,1.469,3.28,3.279V393.324z M164.846,393.324c0,1.811-1.469,3.279-3.28,3.279 s-3.28-1.469-3.28-3.279v-9.119c0-1.811,1.468-3.279,3.28-3.279s3.28,1.469,3.28,3.279V393.324z"/> <path d="M244.584,432.42c4.391,0,7.963-3.607,7.963-8.041c0-4.391-3.572-7.964-7.963-7.964c-4.392,0-7.964,3.573-7.964,7.964 C236.62,428.813,240.193,432.42,244.584,432.42z"/> <path d="M350.307,453.625c0-1.812-1.469-3.28-3.28-3.28H279.8l-6.069-43.655c-0.002-0.008-0.004-0.013-0.006-0.021l-6.371-45.833 h-45.546l-6.364,45.833c-0.003,0.019-0.01,0.035-0.013,0.054l-6.062,43.622h-67.219c-1.812,0-3.28,1.469-3.28,3.28 c0,1.811,1.469,3.279,3.28,3.279h204.877C348.838,456.904,350.307,455.436,350.307,453.625z M244.584,409.855 c8.008,0,14.523,6.516,14.523,14.523c0,8.052-6.515,14.601-14.523,14.601c-8.009,0-14.524-6.549-14.524-14.601 C230.061,416.371,236.575,409.855,244.584,409.855z"/> <path d="M411.961,464.968H207.09c-1.811,0-3.28,1.469-3.28,3.28c0,1.811,1.469,3.279,3.28,3.279h204.871 c1.81,0,3.279-1.469,3.279-3.279C415.24,466.437,413.771,464.968,411.961,464.968z"/> </g> </g> <g id="Layer_1"/> </g>
</svg>