<svg id="Layer_1" data-name="Layer 1" xmlns="http://www.w3.org/2000/svg" viewBox="0 0 79.37 79.37"><defs><style>.cls-1{fill:#3cb4e6;}.cls-2{fill:#fff;}</style></defs><path class="cls-1" d="M39.47,79.37A39.69,39.69,0,1,0-.22,39.69,39.69,39.69,0,0,0,39.47,79.37"/><path class="cls-2" d="M20.42,14.09c5.16-4,20.29,2.6,23.95,6C44.1,19,44.14,17,45.09,16c1.25.31,2.29,1.86,2.71,3.06C49.56,15.72,62.1-4.58,67.46,3.33c3.7,5.46.38,15.85-3.8,19.59,6.58,3.33,11.33,8.47,5.59,15.27-6.78,8-13.66.73-18.53-4.63,1.07,2.76,2,6.95,1.5,9.25-1.29-1.56-2.77-6.05-3.25-8.88-1.55,6.45-2.49,13.59-10.45,13.77C27,48,27.61,37.26,32.12,31.1c-5.76.47-11.89-9-12.49-14.65a2.74,2.74,0,0,1,.79-2.36"/><path class="cls-2" d="M14.7,61.64V62c0,1.14.32,1.87,1.61,1.87a1.39,1.39,0,0,0,1.46-1.49c0-1.11-.56-1.52-2.17-2.08-2.18-.74-3.18-1.65-3.18-3.67,0-2.36,1.44-3.57,3.76-3.57s3.75.94,3.75,3.27v.34H17.59c0-1.14-.39-1.81-1.33-1.81a1.25,1.25,0,0,0-1.39,1.41c0,.75.22,1.21,1.26,1.65l1.88.82c1.84.8,2.31,1.73,2.31,3.21,0,2.57-1.56,3.73-4.21,3.73s-3.86-1.3-3.86-3.54v-.49Z"/><path class="cls-2" d="M28.65,53.29v2H26V65.43H23.55V55.3H20.9v-2Z"/><path class="cls-2" d="M29.76,53.29H33.4l1.73,8.57h0l1.75-8.57h3.62V65.43H38.29V55.74h0L36.1,65.43H34.2L32,55.74h0v9.69H29.76Z"/><path class="cls-2" d="M44.5,58.64h.75c1.27,0,1.83-.91,1.83-2.12s-.41-2-1.56-2c-1.58,0-1.74,1.47-1.74,2.35H42.29c0-2.06,1-3.47,3.19-3.47a2.85,2.85,0,0,1,3.1,3.13,2.47,2.47,0,0,1-1.87,2.58v0a2.57,2.57,0,0,1,2.23,2.8c0,2.19-1.11,3.73-3.42,3.73a3.21,3.21,0,0,1-3.42-3.35v-.16h1.5c0,1.11.54,2.38,1.92,2.38.88,0,1.92-.44,1.92-2.48a2,2,0,0,0-2.18-2.29H44.5Z"/><path class="cls-2" d="M57,65.43H50.31a6.4,6.4,0,0,1,2.6-4.93l1-.84a3.54,3.54,0,0,0,1.6-2.89c0-1-.46-2.15-1.75-2.15-1.86,0-1.91,1.92-1.91,2.6H50.35c0-2.28.95-3.83,3.41-3.83A3,3,0,0,1,57,56.6c0,1.84-.76,2.81-2.1,4L53.19,62a3.74,3.74,0,0,0-1.31,2.06H57Z"/></svg>