<?xml version="1.0" encoding="utf-8"?>
<!-- Generator: Adobe Illustrator 26.0.3, SVG Export Plug-In . SVG Version: 6.00 Build 0)  -->
<svg version="1.0" id="katman_1" xmlns="http://www.w3.org/2000/svg" xmlns:xlink="http://www.w3.org/1999/xlink" x="0px" y="0px"
	 viewBox="0 0 800 600" style="enable-background:new 0 0 800 600;" xml:space="preserve">
<style type="text/css">
	.st0{fill:#4A97D2;}
	.st1{fill:#333333;}
</style>
<g id="g12" transform="scale(0.1)">
	<path id="path14" class="st0" d="M7387.9,2707.3c0,71.8-58,129.9-129.9,129.9c-71.8,0-129.7-58.1-129.7-129.9
		c0-71.8,58-129.9,129.7-129.9C7330,2577.4,7387.9,2635.5,7387.9,2707.3L7387.9,2707.3"/>
	<path id="path16" class="st1" d="M1859,2143.3l-189.2-107.1l-381,772.1l-406.4-772.1l-191.6,107.1l483,907.6
		c-3.6,8.7-14.6,32.3-33.2,71.8c-18.9,37.6-38.3,75-58.8,112.6c-35.9,64.8-72.4,117.5-109.8,158.5c-37.6,42.7-75.8,76.7-115.3,102.4
		c-39.1,25.7-79.9,45.1-122.6,58.8c-41,13.6-82.8,24.7-125.5,33.2l87.1,181.6c27.2-3.6,63.8-12.1,109.8-25.7
		c47.8-11.9,99.6-35,155.9-69c56.1-34,113.4-82.6,171.2-145.7c59.8-63.1,115.3-146.6,166.3-250.4L1859,2143.3"/>
	<path id="path18" class="st1" d="M2893.3,2708.5c0,59.7-10.2,114.9-30.8,166.3c-20.6,51-48.6,95.6-84.2,132.8
		c-34.2,35.9-75,64.8-122.8,87.1c-46.1,20.2-96.4,30.6-150.8,30.6c-54.6,0-105.8-10.2-153.4-30.6c-47.8-22.3-89.6-51.2-125.5-87.1
		c-34-37.2-61.2-81.8-81.8-132.8c-20.6-51.2-30.8-106.6-30.8-166.3c0-59.7,10.2-114.9,30.8-166.1c20.6-51,47.8-95.4,81.8-133
		c35.9-37.6,77.7-66.7,125.5-86.9c47.6-22.4,98.8-33.5,153.4-33.5s104.7,11.1,150.8,33.5c47.8,20.2,88.6,49.3,122.8,86.9
		c35.7,37.6,63.8,81.8,84.2,133C2882.9,2593.5,2893.3,2648.8,2893.3,2708.5 M3131,2708.5c0-88.6-16.2-171.4-48.6-248.1
		c-30.8-76.7-74.1-143.2-130.4-199.4c-56.4-56.1-122.8-99.6-199.4-130.4c-76.7-32.3-159.5-48.6-248.1-48.6
		c-88.6,0-171.4,16.2-248.1,48.6c-76.7,30.8-143.3,74.1-199.4,130.4s-100.7,122.8-133,199.4c-32.3,76.7-48.6,159.5-48.6,248.1
		s16.2,171.4,48.6,248.1c32.3,75,76.9,140.6,133,196.7c56.1,56.4,122.8,100.7,199.4,133c76.7,30.8,159.5,46.1,248.1,46.1
		c88.6,0,171.4-15.3,248.1-46.1c76.7-32.5,143-76.7,199.4-133c56.1-56.1,99.6-121.7,130.4-196.7
		C3114.8,2879.8,3131,2797,3131,2708.5"/>
	<path id="path20" class="st1" d="M6256.9,2708.5c0,59.7-10.2,114.9-30.8,166.3c-20.6,51-48.6,95.6-84.5,132.8
		c-34,35.9-74.8,64.8-122.6,87.1c-46.1,20.2-96.4,30.6-150.8,30.6c-54.6,0-105.8-10.2-153.5-30.6c-47.6-22.3-89.4-51.2-125.3-87.1
		c-34-37.2-61.4-81.8-81.8-132.8c-20.6-51.2-30.8-106.6-30.8-166.3c0-59.7,10.2-114.9,30.8-166.1c20.6-51,47.8-95.4,81.8-133
		c35.9-37.6,77.7-66.7,125.3-86.9c47.8-22.4,99-33.5,153.5-33.5c54.6,0,104.7,11.1,150.8,33.5c47.8,20.2,88.6,49.3,122.6,86.9
		c35.9,37.6,63.9,81.8,84.5,133C6246.7,2593.5,6256.9,2648.8,6256.9,2708.5 M6494.6,2708.5c0-88.6-16.2-171.4-48.6-248.1
		c-30.8-76.7-74.1-143.2-130.4-199.4c-56.4-56.1-122.8-99.6-199.4-130.4c-76.7-32.3-159.5-48.6-248.1-48.6
		c-88.8,0-171.4,16.2-248.1,48.6c-76.7,30.8-143.3,74.1-199.4,130.4s-100.7,122.8-133,199.4c-32.3,76.7-48.6,159.5-48.6,248.1
		s16.2,171.4,48.6,248.1c32.3,75,76.9,140.6,133,196.7c56.1,56.4,122.8,100.7,199.4,133c76.7,30.8,159.3,46.1,248.1,46.1
		c88.6,0,171.4-15.3,248.1-46.1c76.7-32.5,143-76.7,199.4-133c56.1-56.1,99.6-121.7,130.4-196.7
		C6478.5,2879.8,6494.6,2797,6494.6,2708.5"/>
	<path id="path22" class="st1" d="M4808.8,1695.3l-227.7,127.9v279.7h-615.7c-444.6,0-712.4,216.6-712.4,611.2
		c0,612.8,638.5,728.4,1092.4,509.4l-95.7-185.7c-359.3,156.9-757.1,90.1-757.1-327.8c0-269.7,140.4-417.2,467.4-417.2h621.3v745.1
		c0,329.3,377.3,336.8,611.2,201.7l-89.9-177.7c-150.5,76.2-293.5,86-293.5-60v-709h311.5v-189.9h-311.5L4808.8,1695.3
		L4808.8,1695.3"/>
	<path id="path24" class="st1" d="M2237,3900.7h57c28.7-0.2,56.8,20.2,56.8,49.3c0,48.8-54.9,56.1-54.9,56.1l-58.8,0.3
		C2237,4006.4,2237,3900.7,2237,3900.7z M2154.7,3831v430.2h82.1l1-181.4c146.6,9.2,201.3-41.8,201.3-131.8
		c0-80.8-72.4-117-141.8-117H2154.7L2154.7,3831"/>
	<path id="path26" class="st1" d="M3726.2,4046.4c0,20.9-3.9,40.6-11.7,58.8c-7.1,17.7-17.3,33.2-30.8,46.6
		c-13.3,13.3-28.9,23.8-46.8,31.6c-17.7,7.1-36.9,10.9-57.5,10.9c-20.7,0-40-3.7-57.6-10.9c-17.9-7.8-33.3-18.2-46.8-31.6
		c-12.9-13.3-23.1-28.9-30.8-46.6c-7.8-18.2-11.7-37.9-11.7-58.8s3.9-40.3,11.7-58.1c7.7-18,17.9-33.8,30.8-47.1
		c13.3-13.3,28.9-23.6,46.8-30.9c17.7-7.7,36.9-11.4,57.6-11.4c20.6,0,39.8,3.9,57.5,11.4c17.9,7.3,33.3,17.7,46.8,30.9
		c13.3,13.3,23.6,29.1,30.8,47.1C3722.3,4006.1,3726.2,4025.5,3726.2,4046.4 M3809.5,4046.4c0-30.8-6-59.5-18-86
		c-11.7-27-28.1-50.5-49.1-70.1c-20.6-19.9-44.9-35.5-73.1-46.8c-27.9-11.7-58-17.7-90.1-17.7c-32.3,0-62.7,6-91,17.7
		c-27.9,11.2-52,26.9-72.6,46.8c-20.7,19.7-36.9,43-49.1,70.1c-11.7,26.7-17.5,55.3-17.5,86c0,31.1,5.8,60,17.5,86.7
		c12.2,26.7,28.6,50,49.1,70.1c20.6,19.9,44.7,35.5,72.6,46.8c28.2,11.2,58.7,17,91,17c32.1,0,62.4-5.8,90.1-17
		c28.2-11.2,52.7-26.9,73.1-46.8c21.1-20.1,37.6-43.4,49.1-70.1C3803.6,4106.6,3809.5,4077.7,3809.5,4046.4"/>
	<path id="path28" class="st1" d="M4145.2,3831.8v326.1c0,13.1-9.7,27.7-25.7,28.1l-25.7,1l1.4,79.9l24,0.3
		c80.4,1.2,108.1-74.3,108.1-109.7v-325.3"/>
	<path id="path30" class="st1" d="M4845.3,3830.8h-274.3v428.8h275.4l-1.2-69h-191.8v-111.9h160.5v-69h-160.5v-108.5h190.6
		L4845.3,3830.8"/>
	<path id="path32" class="st1" d="M5477.7,3933.7c-140.4-77-278.7-30.3-278.7,110.9c0,113.7,109.3,201.3,289,107.3l26,70.2
		c-172.6,94.9-399.7,27.2-399.7-177.5c0-185.5,201.5-282.1,397.2-180.4L5477.7,3933.7"/>
	<path id="path34" class="st1" d="M6135.3,3830.8l0.2,70.2h-136.9v359.8h-82.5v-359.6h-131.4l1.9-70.2h348.7"/>
	<path id="path36" class="st1" d="M2847,3900.7h57c28.7-0.2,56.8,20.2,56.8,49.3c0,48.8-54.9,56.1-54.9,56.1l-58.8,0.3V3900.7z
		 M2765.1,3831v430.2h82V4076h54.4l95,185.2h93.5l-113.4-207.4c44.9-20.1,68.2-55.4,68.2-105.8c0-84-73.6-117-154.6-117H2765.1
		L2765.1,3831"/>
</g>
</svg>
